<svg width="50" height="58" viewBox="0 0 50 58" fill="none" xmlns="http://www.w3.org/2000/svg">
<path d="M48.2724 11.5564C43.5727 10.9251 39.9908 6.71659 40.0457 1.99045C40.0499 0.907654 39.1469 0 38.0656 0H11.9432C10.8618 0 9.95879 0.907768 9.96299 1.99079C10.0203 6.90947 6.39506 10.7642 1.67416 11.566C0.736407 11.7225 0.0421502 12.5242 0.0201175 13.476C-0.168523 21.6185 0.970248 29.0115 3.40452 35.4497C5.37065 40.6494 8.17891 45.2371 11.7516 49.0851C17.8775 55.6831 24.1174 57.8124 24.38 57.8997C24.8449 58.0543 25.3601 58.0295 25.8079 57.8303C26.0648 57.7162 32.1695 54.9546 38.2101 48.0854L35.2379 45.4645C30.9419 50.3499 26.5713 52.96 24.9046 53.85C23.2351 53.1366 18.9327 50.9952 14.6521 46.3846C7.639 38.8308 3.95715 28.0545 3.96079 15.1465C9.16925 13.7448 13.067 9.30741 13.7996 3.966H36.2094C36.9414 9.30399 40.8346 13.7388 46.0378 15.1436C45.9727 23.537 44.1609 31.1077 40.6446 37.6685L44.1342 39.544C48.195 31.9671 50.1648 23.2001 49.9892 13.486C49.9713 12.5064 49.2419 11.6868 48.2724 11.5564Z" fill="url(#paint0_linear_102_5)"/>
<path d="M26.92 22H23.08V26.0801H19V29.9199H23.08V34H26.92V29.9199H31V26.0801H26.92V22Z" fill="#04A547"/>
<path d="M24.5 14C17.0561 14 11 20.0561 11 27.5001C11 34.9441 17.0561 41 24.5 41C31.9439 41 38 34.9439 38 27.4999C38 20.0559 31.9439 14 24.5 14V14ZM24.5 37.0758C19.2216 37.0758 14.9273 32.7801 14.9273 27.4999C14.9273 22.2198 19.2216 17.924 24.5 17.924C29.7784 17.924 34.0727 22.2198 34.0727 27.4999C34.0727 32.7801 29.7784 37.0758 24.5 37.0758Z" fill="#CFE9DA"/>
<defs>
<linearGradient id="paint0_linear_102_5" x1="10.5264" y1="0.0119824" x2="50.0806" y2="66.5034" gradientUnits="userSpaceOnUse">
<stop stop-color="#1C9850"/>
<stop offset="1" stop-color="#73FFAD"/>
</linearGradient>
</defs>
</svg>
