<svg width="235" height="58" viewBox="0 0 235 58" fill="none" xmlns="http://www.w3.org/2000/svg">
<path d="M81 29.1792C81 27.1931 81.3757 25.2528 82.1272 23.3583C82.8787 21.4333 83.9746 19.6917 85.415 18.1333C86.8553 16.575 88.6088 15.3375 90.6754 14.4208C92.742 13.4736 95.0904 13 97.7206 13C100.852 13 103.56 13.6569 105.846 14.9708C108.163 16.2847 109.885 17.9958 111.012 20.1042L105.095 24.1375C104.594 22.9764 103.92 22.075 103.075 21.4333C102.261 20.7917 101.353 20.3486 100.351 20.1042C99.3801 19.8292 98.4407 19.6917 97.5327 19.6917C96.061 19.6917 94.7772 19.9819 93.6813 20.5625C92.5854 21.1125 91.6774 21.8611 90.9572 22.8083C90.237 23.7556 89.7047 24.8097 89.3603 25.9708C89.0159 27.1319 88.8436 28.2931 88.8436 29.4542C88.8436 30.7375 89.0472 31.975 89.4542 33.1667C89.8613 34.3583 90.4405 35.4125 91.192 36.3292C91.9748 37.2458 92.9142 37.9792 94.0101 38.5292C95.106 39.0486 96.3115 39.3083 97.6266 39.3083C98.566 39.3083 99.521 39.1556 100.492 38.85C101.462 38.5444 102.355 38.0708 103.169 37.4292C104.014 36.7569 104.656 35.8861 105.095 34.8167L111.388 38.4375C110.731 40.0264 109.65 41.3861 108.147 42.5167C106.644 43.6472 104.938 44.5181 103.028 45.1292C101.149 45.7097 99.2862 46 97.4388 46C95.0277 46 92.8046 45.5264 90.7693 44.5792C88.7654 43.6014 87.0275 42.3181 85.5559 40.7292C84.1155 39.1097 82.9883 37.3069 82.1742 35.3208C81.3914 33.3042 81 31.2569 81 29.1792Z" fill="#3D9662"/>
<path d="M115.262 45.725V13.1833H122.965V39.125H139.122V45.725H115.262Z" fill="#3D9662"/>
<path d="M142.736 45.725V13.1833H150.439V45.725H142.736Z" fill="#3D9662"/>
<path d="M164.52 27.1167V45.725H156.818V13.1833H162.923L178.376 32.3417V13.1833H186.079V45.725H179.785L164.52 27.1167Z" fill="#3D9662"/>
<path d="M192.456 45.725V13.1833H200.159V45.725H192.456Z" fill="#3D9662"/>
<path d="M204.612 29.1792C204.612 27.1931 204.988 25.2528 205.739 23.3583C206.49 21.4333 207.586 19.6917 209.027 18.1333C210.467 16.575 212.221 15.3375 214.287 14.4208C216.354 13.4736 218.702 13 221.332 13C224.464 13 227.172 13.6569 229.458 14.9708C231.775 16.2847 233.497 17.9958 234.624 20.1042L228.706 24.1375C228.205 22.9764 227.532 22.075 226.687 21.4333C225.873 20.7917 224.965 20.3486 223.963 20.1042C222.992 19.8292 222.053 19.6917 221.144 19.6917C219.673 19.6917 218.389 19.9819 217.293 20.5625C216.197 21.1125 215.289 21.8611 214.569 22.8083C213.849 23.7556 213.316 24.8097 212.972 25.9708C212.628 27.1319 212.455 28.2931 212.455 29.4542C212.455 30.7375 212.659 31.975 213.066 33.1667C213.473 34.3583 214.052 35.4125 214.804 36.3292C215.587 37.2458 216.526 37.9792 217.622 38.5292C218.718 39.0486 219.923 39.3083 221.238 39.3083C222.178 39.3083 223.133 39.1556 224.103 38.85C225.074 38.5444 225.967 38.0708 226.781 37.4292C227.626 36.7569 228.268 35.8861 228.706 34.8167L235 38.4375C234.342 40.0264 233.262 41.3861 231.759 42.5167C230.256 43.6472 228.55 44.5181 226.64 45.1292C224.761 45.7097 222.898 46 221.051 46C218.64 46 216.416 45.5264 214.381 44.5792C212.377 43.6014 210.639 42.3181 209.168 40.7292C207.727 39.1097 206.6 37.3069 205.786 35.3208C205.003 33.3042 204.612 31.2569 204.612 29.1792Z" fill="#3D9662"/>
<path d="M48.2724 11.5564C43.5727 10.9251 39.9908 6.71659 40.0457 1.99045C40.0499 0.907654 39.1469 0 38.0656 0H11.9432C10.8618 0 9.95879 0.907768 9.96299 1.99079C10.0203 6.90947 6.39506 10.7642 1.67416 11.566C0.736407 11.7225 0.0421502 12.5242 0.0201175 13.476C-0.168523 21.6185 0.970248 29.0115 3.40452 35.4497C5.37065 40.6494 8.17891 45.2371 11.7516 49.0851C17.8775 55.6831 24.1174 57.8124 24.38 57.8997C24.8449 58.0543 25.3601 58.0295 25.8079 57.8303C26.0648 57.7162 32.1695 54.9546 38.2101 48.0854L35.2379 45.4645C30.9419 50.3499 26.5713 52.96 24.9046 53.85C23.2351 53.1366 18.9327 50.9952 14.6521 46.3846C7.639 38.8308 3.95715 28.0545 3.96079 15.1465C9.16925 13.7448 13.067 9.30741 13.7996 3.966H36.2094C36.9414 9.30399 40.8346 13.7388 46.0378 15.1436C45.9727 23.537 44.1609 31.1077 40.6446 37.6685L44.1342 39.544C48.195 31.9671 50.1648 23.2001 49.9892 13.486C49.9713 12.5064 49.2419 11.6868 48.2724 11.5564Z" fill="url(#paint0_linear_0_416)"/>
<path d="M26.92 22H23.08V26.0801H19V29.9199H23.08V34H26.92V29.9199H31V26.0801H26.92V22Z" fill="#04A547"/>
<path d="M24.5 14C17.0561 14 11 20.0561 11 27.5001C11 34.9441 17.0561 41 24.5 41C31.9439 41 38 34.9439 38 27.4999C38 20.0559 31.9439 14 24.5 14ZM24.5 37.0758C19.2216 37.0758 14.9273 32.7801 14.9273 27.4999C14.9273 22.2198 19.2216 17.924 24.5 17.924C29.7784 17.924 34.0727 22.2198 34.0727 27.4999C34.0727 32.7801 29.7784 37.0758 24.5 37.0758Z" fill="#CFE9DA"/>
<defs>
<linearGradient id="paint0_linear_0_416" x1="10.5264" y1="0.0119824" x2="50.0806" y2="66.5034" gradientUnits="userSpaceOnUse">
<stop stop-color="#1C9850"/>
<stop offset="1" stop-color="#73FFAD"/>
</linearGradient>
</defs>
</svg>
